<?xml version="1.0" standalone="no"?><!DOCTYPE svg PUBLIC "-//W3C//DTD SVG 1.1//EN" "http://www.w3.org/Graphics/SVG/1.1/DTD/svg11.dtd"><svg t="1638708973650" class="icon" viewBox="0 0 1024 1024" version="1.1" xmlns="http://www.w3.org/2000/svg" p-id="1664" xmlns:xlink="http://www.w3.org/1999/xlink" width="25" height="25"><defs><style type="text/css"></style></defs><path d="M893.456828 709.055005" p-id="1665" fill="#f5d897"></path><path d="M491.889987 337.939709" p-id="1666" fill="#f5d897"></path><path d="M568.154951 338.993714" p-id="1667" fill="#f5d897"></path><path d="M532.594037 410.04698c-156.479891 0-279.053554 131.534755-279.053554 299.459303 0 82.462107 11.412934 222.429929 87.829348 233.412051 6.227842 0.892323 12.380982 1.354857 18.264992 1.354857 58.861596 0 87.732134-43.586704 110.935602-78.610382 21.642926-32.668027 36.217876-52.697199 62.023612-52.697199 25.805736 0 40.380686 19.782555 62.023612 52.450583 23.202445 35.024701 52.074006 78.363765 110.924345 78.363765 0.011256 0 0.011256 0 0.011256 0 5.884011 0 12.037151-0.215918 18.264992-1.108241 72.587202-10.43363 87.819115-132.562155 87.819115-233.289254C811.637358 541.457916 689.062672 410.04698 532.594037 410.04698zM717.557656 899.31014c-4.16281 0.591471-8.207939 0.903579-12.004405 0.903579-32.829709 0-49.933249-22.24463-74.200956-58.883085-22.49227-33.948183-47.985898-72.425519-98.758258-72.425519-50.782593 0-76.265988 38.477336-98.758258 72.425519-24.267706 36.637432-41.370223 58.883085-74.200956 58.883085-3.797489 0-7.841595-0.312108-12.004405-0.903579-24.859177-3.571339-50.030463-69.919443-50.030463-189.803857 0-125.543298 87.893816-255.398808 234.993059-255.398808 131.771139 0 234.982826 112.183012 234.982826 255.398808C767.576863 834.973856 741.642191 895.846248 717.557656 899.31014z" p-id="1668" fill="#f5d897"></path><path d="M964.501908 272.918833c-7.519254-36.100196-26.02063-60.044538-52.116985-67.434855-5.249561-1.49505-10.714016-2.248204-16.242939-2.248204-45.953611 0-92.745311 51.880601-113.796766 126.156258-10.616802 37.433564-12.886495 75.169003-6.411013 106.256022 7.519254 36.100196 26.031886 60.044538 52.127218 67.434855 5.249561 1.49505 10.714016 2.248204 16.242939 2.248204 45.952588 0 92.745311-51.880601 113.785509-126.156258C968.708719 341.741291 970.988646 303.995619 964.501908 272.918833zM915.709645 367.17045c-17.049305 60.163241-54.353932 99.382475-75.641771 93.530187-9.250688-2.62478-17.10354-15.349593-20.99722-34.034141-4.980431-23.912619-2.915399-54.988382 5.65786-85.269036 15.963577-56.290027 49.804313-94.100168 71.414493-94.100168 1.484817 0 2.87242 0.193405 4.238534 0.569982 9.250688 2.62478 17.10354 15.349593 20.99722 34.034141C926.358169 305.802778 924.293137 336.87854 915.709645 367.17045z" p-id="1669" fill="#f5d897"></path><path d="M636.69907 354.218464c2.097778 0.226151 4.184299 0.333598 6.27082 0.333598 49.578162 0 92.046393-60.733223 100.974739-144.431483 9.369392-87.657432-22.621207-157.942195-74.394361-163.471119-51.945069-5.614881-97.940636 56.892755-107.234303 144.097886C552.946574 278.415011 584.937173 348.68954 636.69907 354.218464zM606.117564 195.415668c6.949272-65.079204 37.971823-105.040335 57.161884-105.040335 0.527003 0 1.054005 0.021489 1.581008 0.075725 19.179828 2.054799 42.446741 47.868217 35.282574 115.001197-6.949272 65.079204-37.982056 105.040335-57.172117 105.040335-0.527003 0-1.054005-0.021489-1.581008-0.075725C622.220311 308.362067 598.953398 262.549671 606.117564 195.415668z" p-id="1670" fill="#f5d897"></path><path d="M272.870738 329.392032c-21.040199-74.275657-67.832921-126.156258-113.785509-126.156258-5.528923 0-10.993378 0.753153-16.242939 2.248204-50.094932 14.18814-69.747527 88.861864-45.716204 173.690878 21.040199 74.275657 67.832921 126.156258 113.785509 126.156258 5.528923 0 10.993378-0.753153 16.242939-2.248204 26.096355-7.390317 44.608987-31.334659 52.127218-67.434855C285.757233 404.561036 283.487539 366.825596 272.870738 329.392032zM236.147348 426.666496c-3.89368 18.684548-11.746532 31.410384-20.99722 34.034141-1.366114 0.376577-2.753717 0.569982-4.238534 0.569982-21.61018 0-55.450916-37.810141-71.40426-94.100168-18.393929-64.960501-3.206018-114.043383 15.33936-119.3042 1.366114-0.376577 2.753717-0.569982 4.238534-0.569982 21.61018 0 55.450916 37.810141 71.40426 94.100168C239.061724 371.677091 241.127779 402.753877 236.147348 426.666496z" p-id="1671" fill="#f5d897"></path><path d="M412.247088 354.552062c2.086521 0 4.174066-0.107447 6.27082-0.333598 51.761897-5.528923 83.742263-75.803453 74.394361-163.471119-9.304923-87.216387-55.32198-149.692301-107.24556-144.097886-51.761897 5.528923-83.742263 75.803453-74.394361 163.471119C320.200696 293.808606 362.668926 354.552062 412.247088 354.552062zM390.356522 90.451058c0.527003-0.054235 1.054005-0.075725 1.581008-0.075725 19.190061 0 50.223868 39.96113 57.172117 105.040335 7.15291 67.13298-16.114003 112.876814-35.282574 114.931612-0.527003 0.054235-1.054005 0.005117-1.570775 0.005117-0.011256 0-0.011256 0-0.011256 0-19.190061 0-50.223868-39.891546-57.172117-104.97075C347.921038 138.248667 371.187951 92.505857 390.356522 90.451058z" p-id="1672" fill="#f5d897"></path></svg>